<svg width="300" height="120" id="s" xmlns="http://www.w3.org/2000/svg" xmlns:xlink="http://www.w3.org/1999/xlink"><g><path d="M362 471Q329 325 248 129Q153-105 75-176Q69-182 61-181Q53-180 47.5-174Q42-168 42.5-160Q43-152 49-146Q97-102 161 30Q130 109 80 252.5Q30 396 7 457Q4 466 7.5 473.5Q11 481 18.5 483.5Q26 486 33.5 483Q41 480 44 473Q68 410 110.5 286.5Q153 163 185 79L212 143Q291 338 323 481Q324 489 331 493Q338 497 346.5 495.5Q355 494 359.5 487Q364 480 362 471Z" transform="matrix(0.0480, 0, 0, -0.048, 0.00, 41.52)" fill="black"></path><path d="M292 156Q278 210 262 232Q214 295 155 292Q104 289 63.5 240Q23 191 24 136Q24 79 72 52Q136 16 211 73Q249 102 292 156M43 407Q97 485 174 493Q266 502 315 410Q346 351 357 253Q362 206 362 95L362 33Q362 21 361 14Q361 9 360 7Q359 2 356-2Q351-10 340-10Q332-11 325-3Q320 3 317 16Q315 25 312 41L302 105Q261 61 235 41Q139-32 52 18Q15 38-2 70Q-19 102-17 137Q-15 172-2 205.5Q11 239 33 265Q85 327 153 332Q232 337 294 256L321 216Q306 342 280 392Q244 460 178 453Q120 446 77 385Q71 378 63 376.5Q55 375 48.5 380Q42 385 40.5 393Q39 401 43 407Z" transform="matrix(0.0480, 0, 0, -0.048, 19.20, 41.52)" fill="black"></path><path d="M362 471Q329 325 248 129Q153-105 75-176Q69-182 61-181Q53-180 47.5-174Q42-168 42.5-160Q43-152 49-146Q97-102 161 30Q130 109 80 252.5Q30 396 7 457Q4 466 7.5 473.5Q11 481 18.5 483.5Q26 486 33.5 483Q41 480 44 473Q68 410 110.5 286.5Q153 163 185 79L212 143Q291 338 323 481Q324 489 331 493Q338 497 346.5 495.5Q355 494 359.5 487Q364 480 362 471Z" transform="matrix(0.0480, 0, 0, -0.048, 39.12, 41.52)" fill="black"></path><path d="M362 471Q329 325 248 129Q153-105 75-176Q69-182 61-181Q53-180 47.5-174Q42-168 42.5-160Q43-152 49-146Q97-102 161 30Q130 109 80 252.5Q30 396 7 457Q4 466 7.5 473.5Q11 481 18.5 483.5Q26 486 33.5 483Q41 480 44 473Q68 410 110.5 286.5Q153 163 185 79L212 143Q291 338 323 481Q324 489 331 493Q338 497 346.5 495.5Q355 494 359.5 487Q364 480 362 471Z" transform="matrix(0.0480, 0, 0, -0.048, 58.32, 41.52)" fill="black"></path><path d="M362 471Q329 325 248 129Q153-105 75-176Q69-182 61-181Q53-180 47.5-174Q42-168 42.5-160Q43-152 49-146Q97-102 161 30Q130 109 80 252.5Q30 396 7 457Q4 466 7.5 473.5Q11 481 18.5 483.5Q26 486 33.5 483Q41 480 44 473Q68 410 110.5 286.5Q153 163 185 79L212 143Q291 338 323 481Q324 489 331 493Q338 497 346.5 495.5Q355 494 359.5 487Q364 480 362 471Z" transform="matrix(0.0480, 0, 0, -0.048, 77.52, 41.52)" fill="black"></path><path d="M133 73Q109-44-3-118Q-10-122-18-120.5Q-26-119-30.5-112Q-35-105-33.5-97Q-32-89-24-84Q73-20 94 81Q96 89 102.5 93.5Q109 98 117 96.5Q125 95 130 88Q135 81 133 73Z" transform="matrix(0.0480, 0, 0, -0.048, 96.72, 41.52)" fill="black"></path><path d="M108 465Q52 463-7 460Q-15 459-21 465Q-27 471-27.5 479Q-28 487-22.5 493Q-17 499-8 500Q55 503 112 507Q120 599 135 674Q136 682 142.5 686.5Q149 691 157.5 689.5Q166 688 170.5 681.5Q175 675 173 666Q161 597 152 508Q225 513 280 518Q288 519 294.5 513.5Q301 508 301.5 499.5Q302 491 297 485Q292 479 284 478Q223 473 148 468Q129 164 195 1Q198-6 195-13.5Q192-21 184.5-24Q177-27 169-24Q161-21 158-13Q89 156 108 465Z" transform="matrix(0.0480, 0, 0, -0.048, 0.00, 99.12)" fill="black"></path><path d="M52 439Q57 387 58 309L58 222Q140 415 252 488Q259 492 267 490.5Q275 489 279.5 482Q284 475 282.5 467Q281 459 273 454Q193 402 142 309.5Q91 217 70 105Q69 94 69 66Q69 33 64 16Q63 14 62 12Q61 9 61 8Q58 3 53 1Q40-6 30 4Q26 8 24 12Q24 14 24 18Q23 22 23 32Q24 58 24 60Q19 170 19 179Q19 193 18 308Q17 386 12 435Q11 444 16.5 450Q22 456 30 457Q38 458 44.5 452.5Q51 447 52 439Z" transform="matrix(0.0480, 0, 0, -0.048, 16.18, 99.12)" fill="black"></path><path d="M292 156Q278 210 262 232Q214 295 155 292Q104 289 63.5 240Q23 191 24 136Q24 79 72 52Q136 16 211 73Q249 102 292 156M43 407Q97 485 174 493Q266 502 315 410Q346 351 357 253Q362 206 362 95L362 33Q362 21 361 14Q361 9 360 7Q359 2 356-2Q351-10 340-10Q332-11 325-3Q320 3 317 16Q315 25 312 41L302 105Q261 61 235 41Q139-32 52 18Q15 38-2 70Q-19 102-17 137Q-15 172-2 205.5Q11 239 33 265Q85 327 153 332Q232 337 294 256L321 216Q306 342 280 392Q244 460 178 453Q120 446 77 385Q71 378 63 376.5Q55 375 48.5 380Q42 385 40.5 393Q39 401 43 407Z" transform="matrix(0.0480, 0, 0, -0.048, 32.35, 99.12)" fill="black"></path><path d="M19 50Q20 118 19 148Q18 179 17.5 248.5Q17 318 14.5 368.5Q12 419 5 466Q4 474 8.5 481Q13 488 21.5 489Q30 490 37 485Q44 480 45 472Q55 397 57 224Q101 315 137 367Q169 413 207 440Q235 459 261 462Q295 466 318 439Q339 416 352 355Q362 309 367 234Q373 151 373 18Q373 10 367 4Q361-2 353-2Q345-2 339 4Q333 10 333 18Q333 154 328 232Q323 302 314 347Q303 398 289 413Q278 423 265 422Q250 421 231 407Q198 384 170 345Q68 196 59 47Q59 19 58 9L58 5L58 4L58 3Q58 2 56 0Q55-6 52-9Q45-15 37-14Q29-13 23-7Q19-4 19-1Q19 1 18.5 2.5Q18 4 18 4L18 17Q18 33 19 50Z" transform="matrix(0.0480, 0, 0, -0.048, 52.27, 99.12)" fill="black"></path><path d="M217 355Q217 356 210 391Q207 408 202 418Q191 436 168.5 443.5Q146 451 120 446Q95 440 81 423.5Q67 407 69 384.5Q71 362 104 327Q117 313 145 287Q173 262 179 256Q194 242 204.5 230Q215 218 228.5 202.5Q242 187 249.5 171Q257 155 263 137.5Q269 120 268.5 101Q268 82 262 62Q247 10 202.5-8Q158-26 110-11Q62 3 28.5 45Q-5 87-5 146Q-5 154 1 160Q7 166 15 166Q23 166 29 160Q35 154 35 146Q35 101 60 69Q85 37 121 26Q157 16 185.5 28.5Q214 41 224 74Q236 112 216.5 148Q197 184 152 228Q147 232 117 259L75 299Q34 343 29 380Q24 421 49 448.5Q74 476 111 484Q147 493 183 480Q218 470 236 436Q245 422 249 400Q249 399 251 386.5Q253 374 255 367Q257 359 253 352Q249 345 241 343Q233 341 226 345Q219 349 217 355Z" transform="matrix(0.0480, 0, 0, -0.048, 72.77, 99.12)" fill="black"></path><path d="M344 570Q338 611 313.5 641.5Q289 672 260 680Q233 688 213 673Q187 654 178 603Q168 544 173 433Q232 433 298 431Q307 431 312.5 424.5Q318 418 318 410Q318 402 311.5 396.5Q305 391 297 391Q234 393 177 393Q177 368 178 355Q180 322 182.5 248.5Q185 175 187.5 118.5Q190 62 195 10Q195 1 190-5Q185-11 176.5-12Q168-13 161.5-7.5Q155-2 155 6Q150 59 147.5 114.5Q145 170 142.5 244.5Q140 319 138 355Q137 367 135 392Q69 390 17 384Q9 383 2.5 388Q-4 393-5 401.5Q-6 410-1 416.5Q4 423 13 424Q65 430 133 432Q127 546 139 611Q151 676 189 705Q225 732 271 718Q312 706 344 667Q376 628 385 576Q386 568 381 561Q376 554 367.5 553Q359 552 352.5 557Q346 562 344 570Z" transform="matrix(0.0480, 0, 0, -0.048, 88.27, 99.12)" fill="black"></path><path d="M173 442Q165 441 161 441Q159 441 155 440.5Q151 440 149 440Q139 439 135 436Q100 418 73 355Q45 290 41 218Q37 139 64 89Q91 39 147 35Q218 30 258 85Q295 138 294 221Q293 294 261.5 355.5Q230 417 173 442M123 472Q128 486 134.5 489.5Q141 493 148 492Q207 481 250 437.5Q293 394 313 339Q333 282 334 222Q336 125 290 62Q237-12 145-5Q102-1 72.5 19.5Q43 40 27.5 73Q12 106 5.5 143Q-1 180 1 219Q6 300 36 371Q70 447 117 472Q116 472 123 472Z" transform="matrix(0.0480, 0, 0, -0.048, 107.47, 99.12)" fill="black"></path><path d="M52 439Q57 387 58 309L58 222Q140 415 252 488Q259 492 267 490.5Q275 489 279.5 482Q284 475 282.5 467Q281 459 273 454Q193 402 142 309.5Q91 217 70 105Q69 94 69 66Q69 33 64 16Q63 14 62 12Q61 9 61 8Q58 3 53 1Q40-6 30 4Q26 8 24 12Q24 14 24 18Q23 22 23 32Q24 58 24 60Q19 170 19 179Q19 193 18 308Q17 386 12 435Q11 444 16.5 450Q22 456 30 457Q38 458 44.5 452.5Q51 447 52 439Z" transform="matrix(0.0480, 0, 0, -0.048, 125.42, 99.12)" fill="black"></path><path d="M236 108Q235 208 227 275Q218 343 201 375Q192 389 183 395Q176 398 167 394Q154 390 136 359Q120 328 102 279Q67 185 62 131Q59 106 63 51Q64 28 64 20Q64 12 63 7Q58-4 48-6Q36-10 27-1Q22 4 22 5Q22 8 21 10L21 10L21 11L21 12L21 16Q21 22 20 31L18 77L13 222Q5 454 5 462Q5 470 11 476Q17 482 25 482Q33 482 39 476Q45 470 45 462Q45 443 52 260Q85 349 102 378Q127 422 152 432Q179 442 202 430Q222 420 236 393Q255 357 270 250Q308 334 333 376Q369 432 402 460Q448 499 490 483Q533 467 550 396Q564 346 567 259Q569 217 566 114Q564 33 566 12Q567 4 561.5-2Q556-8 547.5-9Q539-10 533-4.5Q527 1 526 10Q524 33 526 116Q528 220 527 257Q525 339 511.5 387.5Q498 436 475 445Q456 452 428 430Q399 406 367 354Q342 313 321 265Q300 219 291 191Q280 154 275 105L275 86L275 73L275 68L274 63Q272 60 269 57Q260 48 248 52Q241 55 238 61Q236 63 236 64Q236 66 235 68L235 69L235 70L235 71L235 80Q234 98 235 104Q235 106 236 108Z" transform="matrix(0.0480, 0, 0, -0.048, 141.60, 99.12)" fill="black"></path><path d="M292 156Q278 210 262 232Q214 295 155 292Q104 289 63.5 240Q23 191 24 136Q24 79 72 52Q136 16 211 73Q249 102 292 156M43 407Q97 485 174 493Q266 502 315 410Q346 351 357 253Q362 206 362 95L362 33Q362 21 361 14Q361 9 360 7Q359 2 356-2Q351-10 340-10Q332-11 325-3Q320 3 317 16Q315 25 312 41L302 105Q261 61 235 41Q139-32 52 18Q15 38-2 70Q-19 102-17 137Q-15 172-2 205.5Q11 239 33 265Q85 327 153 332Q232 337 294 256L321 216Q306 342 280 392Q244 460 178 453Q120 446 77 385Q71 378 63 376.5Q55 375 48.5 380Q42 385 40.5 393Q39 401 43 407Z" transform="matrix(0.0480, 0, 0, -0.048, 171.46, 99.12)" fill="black"></path><path d="M108 465Q52 463-7 460Q-15 459-21 465Q-27 471-27.5 479Q-28 487-22.5 493Q-17 499-8 500Q55 503 112 507Q120 599 135 674Q136 682 142.5 686.5Q149 691 157.5 689.5Q166 688 170.5 681.5Q175 675 173 666Q161 597 152 508Q225 513 280 518Q288 519 294.5 513.5Q301 508 301.5 499.5Q302 491 297 485Q292 479 284 478Q223 473 148 468Q129 164 195 1Q198-6 195-13.5Q192-21 184.5-24Q177-27 169-24Q161-21 158-13Q89 156 108 465Z" transform="matrix(0.0480, 0, 0, -0.048, 191.38, 99.12)" fill="black"></path><path d="M60 433Q54 382 53 329Q52 276 56.5 220Q61 164 67 119.5Q73 75 83 9Q84 1 79-6Q74-13 66-14Q58-15 51-10Q44-5 43 3Q33 69 27.5 113.5Q22 158 17 216Q12 274 13 329Q14 384 20 439Q21 447 27.5 452Q34 457 42.5 456Q51 455 56 448.5Q61 442 60 433M61 588Q61 588 64 585Q67 582 67 574Q67 566 61 560Q55 554 47 554Q39 554 33 560Q27 566 27 574Q27 582 33 588Q39 594 47 594Q55 594 61 588Z" transform="matrix(0.0480, 0, 0, -0.048, 207.55, 99.12)" fill="black"></path><path d="M173 442Q165 441 161 441Q159 441 155 440.5Q151 440 149 440Q139 439 135 436Q100 418 73 355Q45 290 41 218Q37 139 64 89Q91 39 147 35Q218 30 258 85Q295 138 294 221Q293 294 261.5 355.5Q230 417 173 442M123 472Q128 486 134.5 489.5Q141 493 148 492Q207 481 250 437.5Q293 394 313 339Q333 282 334 222Q336 125 290 62Q237-12 145-5Q102-1 72.5 19.5Q43 40 27.5 73Q12 106 5.5 143Q-1 180 1 219Q6 300 36 371Q70 447 117 472Q116 472 123 472Z" transform="matrix(0.0480, 0, 0, -0.048, 214.13, 99.12)" fill="black"></path><path d="M19 50Q20 118 19 148Q18 179 17.5 248.5Q17 318 14.5 368.5Q12 419 5 466Q4 474 8.5 481Q13 488 21.5 489Q30 490 37 485Q44 480 45 472Q55 397 57 224Q101 315 137 367Q169 413 207 440Q235 459 261 462Q295 466 318 439Q339 416 352 355Q362 309 367 234Q373 151 373 18Q373 10 367 4Q361-2 353-2Q345-2 339 4Q333 10 333 18Q333 154 328 232Q323 302 314 347Q303 398 289 413Q278 423 265 422Q250 421 231 407Q198 384 170 345Q68 196 59 47Q59 19 58 9L58 5L58 4L58 3Q58 2 56 0Q55-6 52-9Q45-15 37-14Q29-13 23-7Q19-4 19-1Q19 1 18.5 2.5Q18 4 18 4L18 17Q18 33 19 50Z" transform="matrix(0.0480, 0, 0, -0.048, 232.08, 99.12)" fill="black"></path><path d="M217 355Q217 356 210 391Q207 408 202 418Q191 436 168.5 443.5Q146 451 120 446Q95 440 81 423.5Q67 407 69 384.5Q71 362 104 327Q117 313 145 287Q173 262 179 256Q194 242 204.5 230Q215 218 228.5 202.5Q242 187 249.5 171Q257 155 263 137.5Q269 120 268.5 101Q268 82 262 62Q247 10 202.5-8Q158-26 110-11Q62 3 28.5 45Q-5 87-5 146Q-5 154 1 160Q7 166 15 166Q23 166 29 160Q35 154 35 146Q35 101 60 69Q85 37 121 26Q157 16 185.5 28.5Q214 41 224 74Q236 112 216.5 148Q197 184 152 228Q147 232 117 259L75 299Q34 343 29 380Q24 421 49 448.5Q74 476 111 484Q147 493 183 480Q218 470 236 436Q245 422 249 400Q249 399 251 386.5Q253 374 255 367Q257 359 253 352Q249 345 241 343Q233 341 226 345Q219 349 217 355Z" transform="matrix(0.0480, 0, 0, -0.048, 252.58, 99.12)" fill="black"></path><path d="M78 707Q77 684 74 580Q71 476 71 433.5Q71 391 76.5 315Q82 239 94 178Q96 170 91.5 163Q87 156 79 154.5Q71 153 64 157.5Q57 162 56 170Q42 231 36.5 310Q31 389 31 433Q31 477 34.5 582.5Q38 688 38 709Q38 717 44 722.5Q50 728 58.5 728Q67 728 72.5 722Q78 716 78 707M99 57Q99 57 102 54Q105 51 105 43Q105 35 99 29Q93 23 85 23Q77 23 71 29Q65 35 65 43Q65 51 71 57Q77 63 85 63Q93 63 99 57Z" transform="matrix(0.0480, 0, 0, -0.048, 268.08, 99.12)" fill="black"></path></g></svg>